/* XPM */
static char * image_error_xpm[] = {
"24 24 53 1",
" 	c None",
".	c #000000",
"+	c #FF0000",
"@	c #FD0000",
"#	c #FE0000",
"$	c #EE0000",
"%	c #F40000",
"&	c #FA0000",
"*	c #FA0100",
"=	c #ABACAC",
"-	c #F90100",
";	c #EE0200",
">	c #EE0100",
",	c #FE0500",
"'	c #FC0100",
")	c #E80700",
"!	c #FF0100",
"~	c #FFFFFF",
"{	c #FFF8F8",
"]	c #E40200",
"^	c #FB1000",
"/	c #F30200",
"(	c #FF0B00",
"_	c #FF0700",
":	c #FF0600",
"<	c #FC0000",
"[	c #FE0900",
"}	c #F90000",
"|	c #FB1100",
"1	c #FEF5F5",
"2	c #F20100",
"3	c #F21600",
"4	c #FBF6F5",
"5	c #FDF2F2",
"6	c #E20100",
"7	c #FD0400",
"8	c #FB0000",
"9	c #F51000",
"0	c #F8F3F2",
"a	c #EA0100",
"b	c #AAABAC",
"c	c #FB0700",
"d	c #F70000",
"e	c #FA0500",
"f	c #FA0400",
"g	c #F30400",
"h	c #EF0000",
"i	c #F90200",
"j	c #F80100",
"k	c #E30100",
"l	c #C5C5C5",
"m	c #010000",
"n	c #BEBEBE",
"        ........        ",
"      ..+@+++#@$..      ",
"     .%#++++++++#%.     ",
"    .+++++++++++++&.    ",
"   .*++++++++++++++&.   ",
" =.*++++++++++++++++-.  ",
" .;++++++++++++++++++>. ",
"=.,++++++++++++++++++'. ",
".)!++++~~~++++{~~+++++].",
".^+++++~~~~++~~~~+++++/.",
".(+++++~~~~~~~~~~+++++*.",
"._++++++~~~~~~~~++++++'.",
".:+++++++~~~~~~+++++++<.",
".[+++++++~~~~~~+++++++}.",
".|++++++~~~~~~~1++++++2.",
".3+++++~~~~4~~~~5+++++6.",
" .7++++~~~~++~~~~++++8. ",
" .9++++~~~++++~~0++++a. ",
" b.c++++++++++++++++d.  ",
"   .e++++++++++++++d.   ",
"    .f++++++++++++d.    ",
"     .g++++++++++h.     ",
"      ..+i++++jk..l     ",
"        .m......n       "};
